<svg xmlns="http://www.w3.org/2000/svg" width="24" height="24"><path fill="currentColor" d="m18.8 20.7-3-3-2 1.9h-.5q-.5-.5-.5-1.2 0-.6.5-1.1l4-4.1q.6-.5 1.2-.5t1.2.5v.6l-2 1.9 3.1 3 .2.6-.2.6-.8.8-.6.2-.6-.2m2-15L10 16.5l.7.8q.5.4.5 1.1t-.5 1.1l-.3.1h-.3l-1.9-2-3 3q-.3.3-.6.3t-.6-.2l-.8-.8-.2-.6.2-.6 3-3-1.9-2v-.5q.5-.5 1.2-.5.6 0 1.1.5l.8.7L17.9 3.4l.6-.4q.3-.2.6-.1h1q.4 0 .7.2t.2.6v1.7l-.2.3M7 9.6 3.5 6 3 5.4V3.8q0-.4.2-.7t.6-.2H5l.6.1.6.4L9.7 7q.2.2.2.5t-.2.6L8.2 9.6q-.2.2-.6.2t-.5-.2"/></svg>